<svg id="Слой_1" data-name="Слой 1" xmlns="http://www.w3.org/2000/svg" viewBox="0 0 364.6 45.19"><defs><style>.cls-1{fill:#e6203f;}.cls-2{fill:#fff;}</style></defs><path class="cls-1" d="M6.79,17.17H14V30.64a8.07,8.07,0,0,0,.81,4.22,3,3,0,0,0,2.71,1.24,3,3,0,0,0,2.76-1.24,8,8,0,0,0,.82-4.22V17.17h3.56V31.46c0,2.88-.74,5-2.23,6.47s-3.72,2.15-6.71,2.15S10.42,39.38,9,38,6.79,34.4,6.79,31.46Z"/><path class="cls-1" d="M28.29,39.26l5.75-18A9.09,9.09,0,0,1,36,17.51a4.07,4.07,0,0,1,2.93-1,3.78,3.78,0,0,1,2.69.92,8.49,8.49,0,0,1,1.79,3.51l6,18.36H41.79l-1.22-4H33.22l-1.17,4Zm5.85-7.1h5.5L37,22.57Z"/><path class="cls-1" d="M58.05,39.66a4,4,0,0,1-2.84-6.84,4.09,4.09,0,0,1,5.71,0,4,4,0,0,1,0,5.67A3.91,3.91,0,0,1,58.05,39.66Z"/><path class="cls-1" d="M70,39.26V6h13.3q6.41,0,9.94,2.81a9.52,9.52,0,0,1,3.54,7.9A8.3,8.3,0,0,1,94,23.28a11.21,11.21,0,0,1-7.63,2.45H79.08V39.26Zm9.07-29.17V21.6h2.09a7.84,7.84,0,0,0,4.93-1.27,4.75,4.75,0,0,0,1.6-3.94,6,6,0,0,0-1.86-4.56A6.84,6.84,0,0,0,81,10.09Z"/><path class="cls-1" d="M101.22,39.26V17.17h9.64q4.45,0,6.78,1.68A5.67,5.67,0,0,1,120,23.74a5.9,5.9,0,0,1-1,3.61,5.53,5.53,0,0,1-3.1,2l6.48,9.94h-8.42l-5-10.41v-.4a4.92,4.92,0,0,0,3-1.33,4.2,4.2,0,0,0,1-3,3.91,3.91,0,0,0-1-2.93,4.11,4.11,0,0,0-3-1h-.47l-.33,0v19Z"/><path class="cls-1" d="M135.3,40.08a10.52,10.52,0,0,1-8.1-3.54A12.6,12.6,0,0,1,124,27.68a11,11,0,0,1,3.09-8.15,11.21,11.21,0,0,1,8.25-3.06A10.43,10.43,0,0,1,143.36,20a12.68,12.68,0,0,1,3.22,8.88,11,11,0,0,1-3.05,8.16A11.2,11.2,0,0,1,135.3,40.08Zm3.51-11.63a19.13,19.13,0,0,0-.91-6.78c-.61-1.51-1.52-2.26-2.75-2.26s-2,.72-2.57,2.15a19,19,0,0,0-.84,6.52,19,19,0,0,0,.92,6.81c.61,1.52,1.52,2.28,2.74,2.28s2-.72,2.56-2.17A18.91,18.91,0,0,0,138.81,28.45Z"/><path class="cls-1" d="M150.64,39.26V36h5.88a5.31,5.31,0,0,0,2.85-.56,2.13,2.13,0,0,0,.81-1.88c0-1.13-1.1-2-3.31-2.69l-1.57-.48a10.56,10.56,0,0,1-4.47-2.41,5.28,5.28,0,0,1-1.21-3.67A6.37,6.37,0,0,1,151.9,19q2.28-1.82,6.61-1.81h5.76v3.31h-5a3.59,3.59,0,0,0-1.92.43,1.36,1.36,0,0,0-.7,1.21c0,.92,1,1.67,2.89,2.27l1,.32a10.64,10.64,0,0,1,4.78,2.62,6.21,6.21,0,0,1,1.25,4.13,7.35,7.35,0,0,1-2.28,5.72A9,9,0,0,1,158,39.26Z"/><path class="cls-1" d="M174.73,39.26V21H168.8V17.17h19.06V21h-5.93V39.26Z"/><path class="cls-1" d="M201.46,40.08a10.52,10.52,0,0,1-8.1-3.54,12.6,12.6,0,0,1-3.24-8.86,11,11,0,0,1,3.09-8.15,11.21,11.21,0,0,1,8.25-3.06A10.43,10.43,0,0,1,209.52,20a12.68,12.68,0,0,1,3.22,8.88,11,11,0,0,1-3.05,8.16A11.2,11.2,0,0,1,201.46,40.08ZM205,28.45a19.13,19.13,0,0,0-.91-6.78c-.61-1.51-1.52-2.26-2.75-2.26s-2,.72-2.57,2.15a19,19,0,0,0-.84,6.52,19,19,0,0,0,.92,6.81c.61,1.52,1.52,2.28,2.74,2.28s2-.72,2.56-2.17A18.91,18.91,0,0,0,205,28.45Z"/><path class="cls-1" d="M218.3,39.26V6h9.34v33.3Zm18.75,0-9-16.42L238,6h4.9l-7.19,12.18,11.63,21.12Z"/><path class="cls-1" d="M248.29,8.1a3.65,3.65,0,0,1,1.11-2.68,3.61,3.61,0,0,1,2.65-1.11,3.76,3.76,0,0,1,3.79,3.79,3.6,3.6,0,0,1-1.11,2.66,3.68,3.68,0,0,1-2.68,1.1,3.61,3.61,0,0,1-2.65-1.11A3.61,3.61,0,0,1,248.29,8.1Zm.15,31.16V17.17h7.2V39.26Z"/><path class="cls-1" d="M265.73,24.86v14.4h-3.57V20.75a4.93,4.93,0,0,1,.89-3.25,3.35,3.35,0,0,1,2.71-1,4.47,4.47,0,0,1,2.71.86,9.8,9.8,0,0,1,2.44,2.9l4.93,8V17.17h3.56V36.4a5.2,5.2,0,0,1-.59,2.84,2.17,2.17,0,0,1-1.91.84,2.82,2.82,0,0,1-1.83-.67,11.51,11.51,0,0,1-2-2.54Z"/><path class="cls-1" d="M295.47,40.08a10.52,10.52,0,0,1-8.1-3.54,12.6,12.6,0,0,1-3.24-8.86,11,11,0,0,1,3.09-8.15,11.21,11.21,0,0,1,8.25-3.06A10.43,10.43,0,0,1,303.53,20a12.68,12.68,0,0,1,3.22,8.88,11,11,0,0,1-3.05,8.16A11.2,11.2,0,0,1,295.47,40.08ZM299,28.45a19.13,19.13,0,0,0-.91-6.78c-.61-1.51-1.52-2.26-2.75-2.26s-2,.72-2.57,2.15a19,19,0,0,0-.84,6.52,19,19,0,0,0,.92,6.81c.61,1.52,1.52,2.28,2.74,2.28s2-.72,2.56-2.17A18.91,18.91,0,0,0,299,28.45Z"/><path class="cls-2" d="M322.67,40.08a10.55,10.55,0,0,1-8.1-3.53,12.64,12.64,0,0,1-3.24-8.87,11,11,0,0,1,3.09-8.15,11.21,11.21,0,0,1,8.25-3.06A10.43,10.43,0,0,1,330.73,20,12.68,12.68,0,0,1,334,28.9a11,11,0,0,1-3.05,8.16A11.2,11.2,0,0,1,322.67,40.08Zm3.51-11.63a19.13,19.13,0,0,0-.91-6.78c-.6-1.51-1.52-2.26-2.75-2.26s-2,.72-2.57,2.15a19,19,0,0,0-.84,6.52,19,19,0,0,0,.92,6.81c.61,1.52,1.53,2.28,2.74,2.28s2-.72,2.56-2.17A18.91,18.91,0,0,0,326.18,28.45Z"/><path class="cls-2" d="M348.33,40.08a10.55,10.55,0,0,1-8.1-3.53A12.64,12.64,0,0,1,337,27.68a11,11,0,0,1,3.09-8.15,11.21,11.21,0,0,1,8.25-3.06A10.41,10.41,0,0,1,356.38,20a12.64,12.64,0,0,1,3.23,8.88,11,11,0,0,1-3.05,8.16A11.21,11.21,0,0,1,348.33,40.08Zm3.51-11.63a19.13,19.13,0,0,0-.91-6.78c-.61-1.51-1.52-2.26-2.75-2.26s-2,.72-2.57,2.15a19,19,0,0,0-.85,6.52,19,19,0,0,0,.93,6.81c.61,1.52,1.52,2.28,2.74,2.28s2-.72,2.56-2.17A18.91,18.91,0,0,0,351.84,28.45Z"/><circle class="cls-2" cx="322.77" cy="27.74" r="1.66"/><circle class="cls-2" cx="348.27" cy="27.74" r="1.66"/></svg>