<?xml version="1.0" encoding="utf-8"?>
<!-- Generator: Adobe Illustrator 25.2.1, SVG Export Plug-In . SVG Version: 6.00 Build 0)  -->
<svg version="1.1" id="Слой_1" xmlns="http://www.w3.org/2000/svg" xmlns:xlink="http://www.w3.org/1999/xlink" x="0px" y="0px"
	 viewBox="0 0 56.5 45.2" style="enable-background:new 0 0 56.5 45.2;" xml:space="preserve">
<style type="text/css">
	.st0{fill:#E6203F;}
	.st1{fill:#FFFFFF;}
</style>
<path class="st0" d="M3.4,42.8V2.9h11.7c3.8,0,6.7,1.1,8.8,3.4c2.1,2.3,3.3,5.8,3.1,9.5c0.1,3-0.8,5.9-2.5,7.9
	c-1.9,2.1-4.3,3.1-6.7,2.9h-6.4v16.2H3.4z M11.4,7.8v13.8h1.8c1.5,0.2,3.1-0.4,4.4-1.5c1-1.2,1.5-2.9,1.4-4.7
	c0.1-2.1-0.5-4.1-1.6-5.5c-1.2-1.4-2.7-2.2-4.3-2.1L11.4,7.8z"/>
<path class="st0" d="M13.9,42.8V28.1h4.7c1.5,0,2.6,0.4,3.3,1.1c0.8,0.7,1.2,2,1.2,3.3c0,0.9-0.1,1.7-0.5,2.4
	c-0.4,0.7-0.9,1.1-1.5,1.3l3.2,6.6h-4.1l-2.4-6.9v-0.3c0.5-0.1,1.1-0.4,1.5-0.9c0.3-0.6,0.5-1.3,0.5-2c0-0.7-0.1-1.4-0.5-2
	c-0.4-0.5-0.9-0.7-1.5-0.7h-0.2h-0.2v12.6L13.9,42.8z"/>
<path class="st0" d="M28.2,42.8V2.9h8.2v40L28.2,42.8z M44.8,42.8l-7.9-19.7l8.8-20.2H50l-6.3,14.6l10.3,25.3L44.8,42.8z"/>
<path class="st1" d="M45.1,16.7c0.3-0.2,0.6-0.3,0.8-0.1c0.3,0.1,0.5,0.4,0.7,0.7c0.3,0.7,0.1,1.6-0.4,2c0,0,0,0,0,0
	c-0.3,0.2-0.6,0.3-0.8,0.1c-0.3-0.1-0.5-0.4-0.7-0.7c-0.1-0.3-0.2-0.8-0.1-1.1C44.7,17.2,44.9,16.9,45.1,16.7z M37.2,22.9l5.6-4.4
	l1,2.5l-5.6,4.4L37.2,22.9z"/>
<path class="st1" d="M43.4,26l-3.7,2.8l-0.5-1.2l4.7-3.6c0.3-0.3,0.6-0.4,1-0.3c0.3,0.1,0.5,0.4,0.6,0.7c0.1,0.3,0.2,0.7,0.2,1.1
	c-0.1,0.5-0.2,1-0.4,1.4L44,30.2l2.8-2.2l0.5,1.2L42.4,33c-0.2,0.2-0.5,0.3-0.8,0.4c-0.2,0-0.4-0.2-0.5-0.5C41,32.7,41,32.4,41,32.1
	c0.1-0.4,0.2-0.8,0.4-1.2L43.4,26z"/>
<path class="st1" d="M43.8,39.3c-0.5-1.1-0.6-2.3-0.3-3.5c0.3-1.2,0.9-2.3,1.8-2.9c0.8-0.6,1.7-0.8,2.5-0.5c0.9,0.4,1.6,1.2,2,2.3
	c0.5,1.1,0.6,2.3,0.3,3.5c-0.3,1.2-0.9,2.3-1.8,2.9c-0.7,0.6-1.7,0.8-2.5,0.6C44.9,41.2,44.2,40.4,43.8,39.3z M47.3,38.2
	c0.6-0.4,1.1-1,1.6-1.7c0.3-0.5,0.4-1,0.2-1.4c-0.2-0.4-0.5-0.6-0.9-0.5c-0.6,0.2-1.2,0.5-1.8,1c-0.6,0.4-1.1,1-1.6,1.7
	c-0.3,0.5-0.4,1-0.2,1.4s0.5,0.6,0.9,0.5C46.1,39.1,46.7,38.7,47.3,38.2z"/>
</svg>
